<svg xmlns="http://www.w3.org/2000/svg" width="3000" height="1544" viewBox="0 0 3000 1544">
  <defs>
    <style>
      .cls-1 {
        fill-rule: evenodd;
      }
    </style>
  </defs>
  <path id="Color_Fill_1" data-name="Color Fill 1" class="cls-1" d="M364,754h62l1,80h54V754H726l1,79h59V753h61l1,723H786v-78H727v78H481v-78H427v78H364V754Zm63,164v75h54V918H427Zm0,160h54v77H427v-77Zm54,159v78H427l-1-78h55Zm305,78v-78H727v78h59Zm0-160v-78H727v78h59Zm0-161V917H727v77h59ZM2152,754h62l1,80h54V754h245l1,79h59V753h61l1,723h-62v-78h-59v78H2269v-78h-54v78h-63V754Zm63,164v75h54V918h-54Zm0,160h54v77h-54v-77Zm54,159v78h-54l-1-78h55Zm305,78v-78h-59v78h59Zm0-160v-78h-59v78h59Zm0-161V917h-59v77h59ZM996,586c-1.076-60.7,107.84-435.457,498-434,383.19,1.431,497.54,359.3,497.59,430.566,0,0.122.41,2.434,0.41,2.434h93v21h-52L1930,749h77l74-104h5l-1,234h-4l-75-105h-75l105,147h50l-1,555H902l2-658h4l74,102h77L952,773H903V749h50l102-144-72,1L909,706h-4l1-120S996,586.2,996,586Zm162,20h73L1128,749h-73Zm176,0h72L1303,749h-72Zm175-1h72L1479,748h-73Zm176,1h72L1655,749h-74Zm175,0h72L1830,749h-74Zm-30,167h-75l106,148h75Zm-176,0h-73l104,147h74Zm-175,0-73,1,104,147h75Zm-176,0h-74l106,147h73Zm-70,147h-74L1055,774h72Zm848,157v24H1715l1,363h-19l-1-363-380-1v364h-22V1100H907v-23H2081ZM1567,584a6.657,6.657,0,0,0,0-1c-28.43-40.581-117.38-42.714-146,0a8.322,8.322,0,0,0,0,1h146Zm-295,1H1130s-51.4-18.224-51-71c0.45-59.891,63.69-143.764,100-150,0.72-.124,31.66-0.108,32,0,64.91,20.913,108.18,100.269,106,154C1314.94,568.671,1282.06,581.231,1272,585Zm586,1-137,1s-48.16-8.952-50-73c-2.02-70.237,65.06-142.823,107-150,0.72-.123,31.67-0.128,32,0,53.93,20.913,103.19,102.388,99,156C1905.65,562.922,1868.06,582.231,1858,586ZM1495,446s114.49-11.008,114-176c-0.09-28.951-40.92-63.058-114-63-76.24.061-115.1,34.072-115,63C1380.56,437.256,1494.77,445.989,1495,446Z"/>
</svg>
